<svg width="28" height="5" viewBox="0 0 28 5" fill="none" xmlns="http://www.w3.org/2000/svg">
<path d="M0.410734 0.496227C0.77121 0.444235 1.15248 0.418239 1.55455 0.418239C2.07447 0.418239 2.46441 0.522223 2.72437 0.73019C2.98432 0.93469 3.1143 1.23278 3.1143 1.62445C3.1143 2.05771 2.98779 2.38526 2.73476 2.60709C2.4852 2.82892 2.11433 2.93984 1.62214 2.93984C1.42111 2.93984 1.25647 2.9329 1.12822 2.91904V4.26562H0.410734V0.496227ZM1.12822 2.35753C1.25993 2.37833 1.40204 2.38872 1.55455 2.38872C1.83531 2.38872 2.04847 2.32807 2.19405 2.20675C2.34309 2.08197 2.41761 1.9052 2.41761 1.67644C2.41761 1.21545 2.12993 0.984949 1.55455 0.984949C1.39858 0.984949 1.25647 0.995347 1.12822 1.01614V2.35753ZM4.88165 0.470231V2.76826C4.88165 3.40256 5.12948 3.71971 5.62514 3.71971C6.12426 3.71971 6.37382 3.40256 6.37382 2.76826V0.470231H7.0913V2.72147C7.0913 3.24832 6.96306 3.64692 6.70656 3.91728C6.45354 4.18417 6.0896 4.31762 5.61474 4.31762C5.13988 4.31762 4.77594 4.18417 4.52291 3.91728C4.26989 3.64692 4.14337 3.24832 4.14337 2.72147V0.470231H4.88165ZM9.09859 2.78386V4.26562H8.3811V0.496227C8.73465 0.444235 9.11592 0.418239 9.52492 0.418239C10.0344 0.418239 10.4157 0.513557 10.6687 0.704193C10.9218 0.891364 11.0483 1.15652 11.0483 1.49967C11.0483 1.74923 10.9807 1.96759 10.8455 2.15476C10.7138 2.34193 10.5336 2.47191 10.3048 2.5447V2.5551C10.4712 2.65215 10.615 2.85838 10.7363 3.1738L11.1523 4.26562H10.4036L10.0084 3.1894C9.94605 3.02302 9.875 2.91384 9.79528 2.86185C9.71556 2.80986 9.57864 2.78386 9.38454 2.78386H9.09859ZM9.09859 2.23275H9.40534C10.0223 2.23275 10.3308 2.01265 10.3308 1.57246C10.3308 1.18078 10.0448 0.984949 9.47293 0.984949C9.33082 0.984949 9.20604 0.995347 9.09859 1.01614V2.23275ZM13.0155 1.05774V1.98839H14.5388V2.5447H13.0155V3.67812H14.6428V4.26562H12.2876V0.470231H14.6428V1.05774H13.0155Z" fill="#DF2517"/>
<path d="M15.9041 3.03342V2.48231H17.5834V3.03342H15.9041Z" fill="black"/>
<path d="M18.8972 0.470231H21.2005V1.05774H19.6251V2.05598H21.0965V2.61749H19.6251V4.26562H18.8972V0.470231ZM22.5675 4.26562V0.470231H23.363V4.26562H22.5675ZM27.5878 0.470231V1.07333H26.5011V4.26562H25.7629V1.07333H24.6762V0.470231H27.5878Z" fill="#FFD700"/>
<path d="M0.410734 0.496227L0.351171 0.0832568L-0.00650894 0.134845L-0.00650894 0.496227H0.410734ZM2.72437 0.73019L2.46371 1.05601L2.46639 1.05812L2.72437 0.73019ZM2.73476 2.60709L2.4597 2.29334L2.45756 2.29524L2.73476 2.60709ZM1.12822 2.91904L1.17307 2.50421L0.710976 2.45426V2.91904H1.12822ZM1.12822 4.26562V4.68287H1.54546V4.26562H1.12822ZM0.410734 4.26562H-0.00650894V4.68287H0.410734V4.26562ZM1.12822 2.35753H0.710976V2.71406L1.06315 2.76967L1.12822 2.35753ZM2.19405 2.20675L2.46116 2.52729L2.46189 2.52668L2.19405 2.20675ZM1.12822 1.01614L1.06143 0.604281L0.710976 0.661112V1.01614H1.12822ZM0.470297 0.909197C0.809138 0.860326 1.17039 0.835483 1.55455 0.835483V0.000996058C1.13458 0.000996058 0.733283 0.0281447 0.351171 0.0832568L0.470297 0.909197ZM1.55455 0.835483C2.02989 0.835483 2.30918 0.932375 2.46372 1.056L2.98501 0.404377C2.61963 0.112071 2.11905 0.000996058 1.55455 0.000996058V0.835483ZM2.46639 1.05812C2.60673 1.16853 2.69706 1.33435 2.69706 1.62445H3.53155C3.53155 1.1312 3.36191 0.700852 2.98234 0.402255L2.46639 1.05812ZM2.69706 1.62445C2.69706 1.97446 2.59788 2.1722 2.4597 2.29335L3.00982 2.92083C3.3777 2.59831 3.53155 2.14097 3.53155 1.62445H2.69706ZM2.45756 2.29524C2.31361 2.4232 2.05952 2.52259 1.62214 2.52259V3.35708C2.16914 3.35708 2.6568 3.23464 3.01196 2.91894L2.45756 2.29524ZM1.62214 2.52259C1.42882 2.52259 1.28061 2.51584 1.17307 2.50421L1.08337 3.33387C1.23232 3.34997 1.41339 3.35708 1.62214 3.35708V2.52259ZM0.710976 2.91904V4.26562H1.54546V2.91904H0.710976ZM1.12822 3.84838H0.410734V4.68287H1.12822V3.84838ZM0.827978 4.26562V0.496227H-0.00650894V4.26562H0.827978ZM1.06315 2.76967C1.21919 2.7943 1.38329 2.80597 1.55455 2.80597V1.97148C1.4208 1.97148 1.30068 1.96235 1.19329 1.94539L1.06315 2.76967ZM1.55455 2.80597C1.88743 2.80597 2.21183 2.73506 2.46116 2.52729L1.92694 1.88622C1.88511 1.92107 1.78318 1.97148 1.55455 1.97148V2.80597ZM2.46189 2.52668C2.72275 2.30828 2.83486 2.00447 2.83486 1.67644H2.00037C2.00037 1.80593 1.96343 1.85566 1.92621 1.88683L2.46189 2.52668ZM2.83486 1.67644C2.83486 1.35407 2.72969 1.04609 2.46274 0.8322C2.21344 0.632465 1.88693 0.567705 1.55455 0.567705V1.40219C1.79755 1.40219 1.90257 1.45268 1.94096 1.48344C1.96169 1.50005 2.00037 1.53781 2.00037 1.67644H2.83486ZM1.55455 0.567705C1.38049 0.567705 1.21562 0.579277 1.06143 0.604281L1.19501 1.42801C1.29731 1.41142 1.41666 1.40219 1.55455 1.40219V0.567705ZM0.710976 1.01614V2.35753H1.54546V1.01614H0.710976ZM4.88165 0.470231H5.2989V0.0529877H4.88165V0.470231ZM6.37382 0.470231V0.0529877H5.95657V0.470231H6.37382ZM7.0913 0.470231H7.50855V0.0529877H7.0913V0.470231ZM6.70656 3.91728L6.40387 3.63011L6.40377 3.63021L6.70656 3.91728ZM4.52291 3.91728L4.21827 4.2024L4.22012 4.20435L4.52291 3.91728ZM4.14337 0.470231V0.0529877H3.72613V0.470231H4.14337ZM4.46441 0.470231V2.76826H5.2989V0.470231H4.46441ZM4.46441 2.76826C4.46441 3.12831 4.5328 3.4752 4.73875 3.73876C4.96 4.02189 5.28177 4.13696 5.62514 4.13696V3.30247C5.47284 3.30247 5.42288 3.25896 5.3963 3.22494C5.35442 3.17135 5.2989 3.04252 5.2989 2.76826H4.46441ZM5.62514 4.13696C5.9692 4.13696 6.29206 4.02261 6.51455 3.73987C6.72204 3.47617 6.79106 3.1288 6.79106 2.76826H5.95657C5.95657 3.04202 5.90081 3.17038 5.85875 3.22383C5.83167 3.25824 5.78019 3.30247 5.62514 3.30247V4.13696ZM6.79106 2.76826V0.470231H5.95657V2.76826H6.79106ZM6.37382 0.887474H7.0913V0.0529877H6.37382V0.887474ZM6.67406 0.470231V2.72147H7.50855V0.470231H6.67406ZM6.67406 2.72147C6.67406 3.18581 6.5611 3.46438 6.40387 3.63011L7.00926 4.20445C7.36501 3.82947 7.50855 3.31083 7.50855 2.72147H6.67406ZM6.40377 3.63021C6.25082 3.79154 6.01021 3.90037 5.61474 3.90037V4.73486C6.16898 4.73486 6.65626 4.5768 7.00936 4.20435L6.40377 3.63021ZM5.61474 3.90037C5.21926 3.90037 4.97866 3.79154 4.82571 3.63021L4.22012 4.20435C4.57322 4.5768 5.0605 4.73486 5.61474 4.73486V3.90037ZM4.82755 3.63217C4.67253 3.46653 4.56062 3.18715 4.56062 2.72147H3.72613C3.72613 3.30949 3.86724 3.82732 4.21827 4.20239L4.82755 3.63217ZM4.56062 2.72147V0.470231H3.72613V2.72147H4.56062ZM4.14337 0.887474H4.88165V0.0529877H4.14337V0.887474ZM9.09859 2.78386V2.36662H8.68134V2.78386H9.09859ZM9.09859 4.26562V4.68287H9.51583V4.26562H9.09859ZM8.3811 4.26562H7.96386V4.68287H8.3811V4.26562ZM8.3811 0.496227L8.3204 0.0834233L7.96386 0.135855V0.496227H8.3811ZM10.6687 0.704193L10.4177 1.03745L10.4206 1.03963L10.6687 0.704193ZM10.8455 2.15476L10.5072 1.91045L10.5043 1.91464L10.8455 2.15476ZM10.3048 2.5447L10.1783 2.1471L9.88755 2.2396V2.5447H10.3048ZM10.3048 2.5551H9.88755V2.79475L10.0946 2.9155L10.3048 2.5551ZM10.7363 3.1738L11.1262 3.02526L11.1258 3.02402L10.7363 3.1738ZM11.1523 4.26562V4.68287H11.7577L11.5422 4.11709L11.1523 4.26562ZM10.4036 4.26562L10.0119 4.40943L10.1123 4.68287H10.4036V4.26562ZM10.0084 3.1894L10.4001 3.04559L10.3991 3.04289L10.0084 3.1894ZM9.79528 2.86185L9.56735 3.21134L9.56735 3.21134L9.79528 2.86185ZM9.09859 2.23275H8.68134V2.64999H9.09859V2.23275ZM9.09859 1.01614L9.0193 0.606503L8.68134 0.671915V1.01614H9.09859ZM8.68134 2.78386V4.26562H9.51583V2.78386H8.68134ZM9.09859 3.84838H8.3811V4.68287H9.09859V3.84838ZM8.79835 4.26562V0.496227H7.96386V4.26562H8.79835ZM8.44181 0.90903C8.77262 0.860381 9.13339 0.835483 9.52492 0.835483V0.000996058C9.09844 0.000996058 8.69667 0.0280892 8.3204 0.0834233L8.44181 0.90903ZM9.52492 0.835483C9.99479 0.835483 10.2692 0.925579 10.4177 1.03744L10.9198 0.370947C10.5622 0.101536 10.0741 0.000996058 9.52492 0.000996058V0.835483ZM10.4206 1.03963C10.5566 1.14023 10.631 1.27497 10.631 1.49967H11.4655C11.4655 1.03808 11.2869 0.642493 10.9169 0.368752L10.4206 1.03963ZM10.631 1.49967C10.631 1.66901 10.5869 1.80025 10.5073 1.91047L11.1838 2.39905C11.3745 2.13494 11.4655 1.82944 11.4655 1.49967H10.631ZM10.5043 1.91464C10.4277 2.02346 10.3247 2.1005 10.1783 2.1471L10.4313 2.9423C10.7424 2.84333 10.9999 2.6604 11.1867 2.39488L10.5043 1.91464ZM9.88755 2.5447V2.5551H10.722V2.5447H9.88755ZM10.0946 2.9155C10.1369 2.94019 10.2366 3.03679 10.3469 3.32358L11.1258 3.02402C10.9934 2.67997 10.8055 2.36411 10.515 2.19469L10.0946 2.9155ZM10.3464 3.32234L10.7624 4.41416L11.5422 4.11709L11.1262 3.02526L10.3464 3.32234ZM11.1523 3.84838H10.4036V4.68287H11.1523V3.84838ZM10.7953 4.12182L10.4001 3.04559L9.61676 3.3332L10.0119 4.40943L10.7953 4.12182ZM10.3991 3.04289C10.3289 2.85554 10.2185 2.63976 10.0232 2.51236L9.56735 3.21134C9.54416 3.19621 9.54382 3.18753 9.55865 3.21032C9.57286 3.23215 9.59367 3.27164 9.61777 3.3359L10.3991 3.04289ZM10.0232 2.51236C9.83491 2.38956 9.59087 2.36662 9.38454 2.36662V3.2011C9.46482 3.2011 9.51996 3.20663 9.55497 3.21328C9.59261 3.22043 9.58911 3.22553 9.56735 3.21134L10.0232 2.51236ZM9.38454 2.36662H9.09859V3.2011H9.38454V2.36662ZM9.09859 2.64999H9.40534V1.81551H9.09859V2.64999ZM9.40534 2.64999C9.75083 2.64999 10.0848 2.59064 10.3418 2.40733C10.6246 2.20551 10.748 1.90241 10.748 1.57246H9.91355C9.91355 1.6827 9.88271 1.70974 9.85709 1.72802C9.80553 1.76481 9.67682 1.81551 9.40534 1.81551V2.64999ZM10.748 1.57246C10.748 1.25981 10.6248 0.974363 10.3521 0.787574C10.1077 0.620239 9.79352 0.567705 9.47293 0.567705V1.40219C9.72424 1.40219 9.83895 1.44758 9.88057 1.47608C9.89612 1.48673 9.89987 1.49363 9.90201 1.49802C9.90509 1.50436 9.91355 1.52537 9.91355 1.57246H10.748ZM9.47293 0.567705C9.31162 0.567705 9.15927 0.579413 9.0193 0.606503L9.17787 1.42579C9.25281 1.41128 9.35002 1.40219 9.47293 1.40219V0.567705ZM8.68134 1.01614V2.23275H9.51583V1.01614H8.68134ZM13.0155 1.05774V0.640494H12.5982V1.05774H13.0155ZM13.0155 1.98839H12.5982V2.40563H13.0155V1.98839ZM14.5388 1.98839H14.9561V1.57115H14.5388V1.98839ZM14.5388 2.5447V2.96194H14.9561V2.5447H14.5388ZM13.0155 2.5447V2.12746H12.5982V2.5447H13.0155ZM13.0155 3.67812H12.5982V4.09536H13.0155V3.67812ZM14.6428 3.67812H15.0601V3.26088H14.6428V3.67812ZM14.6428 4.26562V4.68287H15.0601V4.26562H14.6428ZM12.2876 4.26562H11.8703V4.68287H12.2876V4.26562ZM12.2876 0.470231V0.0529877H11.8703V0.470231H12.2876ZM14.6428 0.470231H15.0601V0.0529877H14.6428V0.470231ZM14.6428 1.05774V1.47498H15.0601V1.05774H14.6428ZM12.5982 1.05774V1.98839H13.4327V1.05774H12.5982ZM13.0155 2.40563H14.5388V1.57115H13.0155V2.40563ZM14.1216 1.98839V2.5447H14.9561V1.98839H14.1216ZM14.5388 2.12746H13.0155V2.96194H14.5388V2.12746ZM12.5982 2.5447V3.67812H13.4327V2.5447H12.5982ZM13.0155 4.09536H14.6428V3.26088H13.0155V4.09536ZM14.2256 3.67812V4.26562H15.0601V3.67812H14.2256ZM14.6428 3.84838H12.2876V4.68287H14.6428V3.84838ZM12.7048 4.26562V0.470231H11.8703V4.26562H12.7048ZM12.2876 0.887474H14.6428V0.0529877H12.2876V0.887474ZM14.2256 0.470231V1.05774H15.0601V0.470231H14.2256ZM14.6428 0.640494H13.0155V1.47498H14.6428V0.640494ZM15.9041 3.03342H15.4868V3.45067H15.9041V3.03342ZM15.9041 2.48231V2.06507H15.4868V2.48231H15.9041ZM17.5834 2.48231H18.0006V2.06507H17.5834V2.48231ZM17.5834 3.03342V3.45067H18.0006V3.03342H17.5834ZM16.3213 3.03342V2.48231H15.4868V3.03342H16.3213ZM15.9041 2.89955H17.5834V2.06507H15.9041V2.89955ZM17.1661 2.48231V3.03342H18.0006V2.48231H17.1661ZM17.5834 2.61618H15.9041V3.45067H17.5834V2.61618ZM18.8972 0.470231V0.0529877H18.48V0.470231H18.8972ZM21.2005 0.470231H21.6177V0.0529877H21.2005V0.470231ZM21.2005 1.05774V1.47498H21.6177V1.05774H21.2005ZM19.6251 1.05774V0.640494H19.2079V1.05774H19.6251ZM19.6251 2.05598H19.2079V2.47322H19.6251V2.05598ZM21.0965 2.05598H21.5137V1.63873H21.0965V2.05598ZM21.0965 2.61749V3.03473H21.5137V2.61749H21.0965ZM19.6251 2.61749V2.20024H19.2079V2.61749H19.6251ZM19.6251 4.26562V4.68287H20.0424V4.26562H19.6251ZM18.8972 4.26562H18.48V4.68287H18.8972V4.26562ZM18.8972 0.887474H21.2005V0.0529877H18.8972V0.887474ZM20.7832 0.470231V1.05774H21.6177V0.470231H20.7832ZM21.2005 0.640494H19.6251V1.47498H21.2005V0.640494ZM19.2079 1.05774V2.05598H20.0424V1.05774H19.2079ZM19.6251 2.47322H21.0965V1.63873H19.6251V2.47322ZM20.6792 2.05598V2.61749H21.5137V2.05598H20.6792ZM21.0965 2.20024H19.6251V3.03473H21.0965V2.20024ZM19.2079 2.61749V4.26562H20.0424V2.61749H19.2079ZM19.6251 3.84838H18.8972V4.68287H19.6251V3.84838ZM19.3145 4.26562V0.470231H18.48V4.26562H19.3145ZM22.5675 4.26562H22.1503V4.68287H22.5675V4.26562ZM22.5675 0.470231V0.0529877H22.1503V0.470231H22.5675ZM23.363 0.470231H23.7802V0.0529877H23.363V0.470231ZM23.363 4.26562V4.68287H23.7802V4.26562H23.363ZM22.9848 4.26562V0.470231H22.1503V4.26562H22.9848ZM22.5675 0.887474H23.363V0.0529877H22.5675V0.887474ZM22.9458 0.470231V4.26562H23.7802V0.470231H22.9458ZM23.363 3.84838H22.5675V4.68287H23.363V3.84838ZM27.5878 0.470231H28.005V0.0529877H27.5878V0.470231ZM27.5878 1.07333V1.49058H28.005V1.07333H27.5878ZM26.5011 1.07333V0.656091H26.0839V1.07333H26.5011ZM26.5011 4.26562V4.68287H26.9184V4.26562H26.5011ZM25.7629 4.26562H25.3456V4.68287H25.7629V4.26562ZM25.7629 1.07333H26.1801V0.656091H25.7629V1.07333ZM24.6762 1.07333H24.259V1.49058H24.6762V1.07333ZM24.6762 0.470231V0.0529877H24.259V0.470231H24.6762ZM27.1705 0.470231V1.07333H28.005V0.470231H27.1705ZM27.5878 0.656091H26.5011V1.49058H27.5878V0.656091ZM26.0839 1.07333V4.26562H26.9184V1.07333H26.0839ZM26.5011 3.84838H25.7629V4.68287H26.5011V3.84838ZM26.1801 4.26562V1.07333H25.3456V4.26562H26.1801ZM25.7629 0.656091H24.6762V1.49058H25.7629V0.656091ZM25.0935 1.07333V0.470231H24.259V1.07333H25.0935ZM24.6762 0.887474H27.5878V0.0529877H24.6762V0.887474Z" fill="white"/>
</svg>
