<svg width="8" height="6" viewBox="0 0 8 6" fill="none" xmlns="http://www.w3.org/2000/svg">
<path fill-rule="evenodd" clip-rule="evenodd" d="M0.683594 0.453125H6.25622C6.73911 0.453125 7.13057 0.846742 7.13057 1.33229V2.15631C6.51671 2.15634 6.01909 2.55767 6.01909 3.05272C6.01909 3.54777 6.51671 3.9491 7.13057 3.94913V5.6523H0.683594V3.94913C1.29742 3.94907 1.795 3.54775 1.795 3.05272C1.795 2.55768 1.29742 2.15637 0.683594 2.15631V0.453125ZM1.07705 1.80678C1.67453 1.94757 2.18845 2.4023 2.18845 3.05272C2.18845 3.70314 1.67453 4.15787 1.07705 4.29866V5.25667H6.73711V4.29867C6.1396 4.1579 5.62564 3.70316 5.62564 3.05272C5.62564 2.40228 6.1396 1.94754 6.73711 1.80677V1.33229C6.73711 1.06524 6.52181 0.848751 6.25622 0.848751H1.07705V1.80678Z" fill="white"/>
</svg>
