<svg width="5" height="5" viewBox="0 0 5 5" fill="none" xmlns="http://www.w3.org/2000/svg">
<path fill-rule="evenodd" clip-rule="evenodd" d="M4.58564 2.99826C4.58566 2.99827 4.58567 2.99827 4.58569 2.99828C4.70108 3.05169 4.8328 3.08196 4.97264 3.08196V1.64771C4.8328 1.64771 4.70108 1.67798 4.58569 1.73139C4.58567 1.73139 4.58566 1.7314 4.58564 1.73141C4.32523 1.85197 4.14795 2.0904 4.14795 2.36483C4.14795 2.63927 4.32523 2.8777 4.58564 2.99826ZM4.58569 1.31459C4.13087 1.45602 3.76094 1.84122 3.76094 2.36483C3.76094 2.88845 4.13087 3.27365 4.58569 3.41508V4.05218H0.576455V3.41506C1.03124 3.27361 1.40113 2.88842 1.40113 2.36483C1.40113 1.84125 1.03124 1.45606 0.576455 1.31461V0.677467H4.58569V1.31459ZM4.97269 0.285156V4.44449H0.189453V3.08196C0.64491 3.08195 1.01413 2.76089 1.01413 2.36483C1.01413 1.96878 0.64491 1.64772 0.189453 1.64771V0.285156H4.97269Z" fill="white"/>
</svg>
