<svg width="8" height="6" viewBox="0 0 8 6" fill="none" xmlns="http://www.w3.org/2000/svg">
<path fill-rule="evenodd" clip-rule="evenodd" d="M4.3012 5.6523C4.66937 5.64496 4.92407 5.63663 4.92407 5.63663C4.92393 5.62826 4.92364 5.61991 4.92321 5.6116C4.91617 5.47601 4.87098 5.34828 4.79588 5.23469C4.79327 5.23074 4.79062 5.22681 4.78794 5.2229C4.59059 4.93495 4.19954 4.74087 3.75264 4.74553C3.1211 4.7521 2.61459 5.1531 2.61194 5.64455C2.61192 5.64713 2.61192 5.64971 2.61194 5.6523H0.445312V1.33229C0.445312 0.846742 0.849397 0.453125 1.34786 0.453125H7.10025V5.6523H4.3012ZM5.27696 5.23469H6.67154V0.87073H1.34786C1.08617 0.87073 0.874022 1.07738 0.874022 1.33229V5.23469H2.25896C2.47424 4.67498 3.1151 4.33454 3.74806 4.32795C4.3933 4.32123 5.05688 4.66112 5.27696 5.23469Z" fill="white"/>
</svg>
