<svg width="8" height="6" viewBox="0 0 8 6" fill="none" xmlns="http://www.w3.org/2000/svg">
<path fill-rule="evenodd" clip-rule="evenodd" d="M1.93139 0.652391C1.24225 0.652391 0.683594 1.21105 0.683594 1.90019L0.683594 4.60376C0.683594 5.2929 1.24225 5.85156 1.93139 5.85156H5.88276C6.57191 5.85156 7.13057 5.2929 7.13057 4.60376V1.90019C7.13057 1.21105 6.57191 0.652391 5.88277 0.652391H1.93139ZM4.3678 1.46841C4.94394 1.25647 4.52088 0.652417 3.90699 0.652417V0.652417V0.652417C3.2931 0.652417 2.87004 1.25647 3.44619 1.46841C3.58658 1.52005 3.74262 1.54883 3.90699 1.54883C4.07137 1.54883 4.22741 1.52005 4.3678 1.46841Z" fill="#DF2517"/>
</svg>
