<svg width="8" height="6" viewBox="0 0 8 6" fill="none" xmlns="http://www.w3.org/2000/svg">
<path fill-rule="evenodd" clip-rule="evenodd" d="M4.82808 0.791972C4.90096 0.672655 4.9432 0.587358 4.9432 0.44536L2.79545 0.445385C2.79545 0.587383 2.83639 0.721669 2.90927 0.840986C3.09049 1.13765 3.46919 1.34179 3.90699 1.34179C4.34479 1.34179 4.64685 1.08864 4.82808 0.791972ZM2.47057 0.840986C2.67343 1.39945 3.29477 1.73742 3.90699 1.73742C4.51921 1.73742 5.14056 1.39945 5.34342 0.840986H6.73711V4.41369C6.73711 4.87497 6.36523 5.24891 5.90649 5.24891H1.07705L1.07705 0.840986H2.47057ZM7.13057 0.44536V4.41369C7.13057 5.09347 6.58253 5.64453 5.90649 5.64453H0.683594L0.683594 0.44536H7.13057Z" fill="white"/>
</svg>
