<svg width="7" height="3" viewBox="0 0 7 3" fill="none" xmlns="http://www.w3.org/2000/svg">
<path fill-rule="evenodd" clip-rule="evenodd" d="M6.38761 2.4956V0C6.26192 0 6.13622 0.00526728 6.01088 0.0153573C5.15548 0.0842192 4.31743 0.377711 3.62424 0.754517C2.95858 0.409492 2.16589 0.143785 1.3572 0.0786908C1.23187 0.0686026 1.10615 0.0633328 0.980469 0.0633328V2.48639H1.9113C1.91124 2.48947 1.91121 2.49254 1.91121 2.4956H6.38761ZM2.29497 2.13672H6.01088V0.375643C5.23312 0.443786 4.46013 0.713341 3.81094 1.06623L3.6286 1.16535L3.44419 1.06976C2.8218 0.747163 2.09174 0.503317 1.3572 0.438975V2.1275H2.29515L2.29497 2.13672Z" fill="white"/>
</svg>
